<?xml version="1.0" encoding="utf-8"?>
<!-- Generator: Adobe Illustrator 16.0.4, SVG Export Plug-In . SVG Version: 6.00 Build 0)  -->
<!DOCTYPE svg PUBLIC "-//W3C//DTD SVG 1.1//EN" "http://www.w3.org/Graphics/SVG/1.1/DTD/svg11.dtd" [
	<!ENTITY ns_extend "http://ns.adobe.com/Extensibility/1.0/">
	<!ENTITY ns_ai "http://ns.adobe.com/AdobeIllustrator/10.0/">
	<!ENTITY ns_graphs "http://ns.adobe.com/Graphs/1.0/">
	<!ENTITY ns_vars "http://ns.adobe.com/Variables/1.0/">
	<!ENTITY ns_imrep "http://ns.adobe.com/ImageReplacement/1.0/">
	<!ENTITY ns_sfw "http://ns.adobe.com/SaveForWeb/1.0/">
	<!ENTITY ns_custom "http://ns.adobe.com/GenericCustomNamespace/1.0/">
	<!ENTITY ns_adobe_xpath "http://ns.adobe.com/XPath/1.0/">
]>
<svg version="1.1" id="Calque_1" xmlns:x="&ns_extend;" xmlns:i="&ns_ai;" xmlns:graph="&ns_graphs;"
	 xmlns="http://www.w3.org/2000/svg" xmlns:xlink="http://www.w3.org/1999/xlink" x="0px" y="0px" width="442px" height="45px"
	 viewBox="0 -16 442 45" enable-background="new 0 -16 442 45" xml:space="preserve">
<metadata>
	<sfw  xmlns="&ns_sfw;">
		<slices></slices>
		<sliceSourceBounds  height="40.44" width="442" x="-205.5" y="-2.24" bottomLeftOrigin="true"></sliceSourceBounds>
	</sfw>
</metadata>
<title>Group 64</title>
<desc>Created with Sketch.</desc>
<g id="Page-1">
	<g id="_x32_0170829---FRACTURE-FR---Sante-Copy" transform="translate(-499.000000, -898.000000)">
		<g id="Group-64" transform="translate(499.000000, 898.000000)">
			<g id="Group-34">
				<g id="Group-21">
					<rect id="Rectangle-10" x="40.293" fill="#FF0051" width="39.072" height="10"/>
					<rect id="Rectangle-10_1_" fill="#A2002C" width="39.072" height="10"/>
					<rect id="Rectangle-10-Copy-4" x="201.464" fill="#FDEFF3" width="39.072" height="10"/>
					<rect id="Rectangle-10-Copy-2" x="120.878" fill="#FF96A8" width="39.072" height="10"/>
					<rect id="Rectangle-10-Copy-5" x="282.05" fill="#9ED7D8" width="39.071" height="10"/>
					<rect id="Rectangle-10-Copy-8" x="362.635" fill="#009CAD" width="39.072" height="10"/>
					<rect id="Rectangle-10-Copy" x="80.585" fill="#FF5F76" width="39.072" height="10"/>
					<rect id="Rectangle-10-Copy-6" x="241.757" fill="#D8EFF2" width="39.071" height="10"/>
					<rect id="Rectangle-10-Copy-3" x="161.171" fill="#FFD3D8" width="39.072" height="10"/>
					<rect id="Rectangle-10-Copy-7" x="322.343" fill="#5DC2CE" width="39.071" height="10"/>
					<rect id="Rectangle-10-Copy-9" x="402.928" fill="#005456" width="39.072" height="10"/>
				</g>
				<g id="Group-25" transform="translate(0.000000, 19.000000)">
					<path id="très-mauvaise" fill="#898F95" d="M44.984,0.973h1.066v1.752h1.002v0.861h-1.002v4.096
						c0,0.219,0.074,0.365,0.223,0.439c0.082,0.043,0.219,0.064,0.41,0.064c0.051,0,0.105-0.001,0.164-0.003
						s0.127-0.007,0.205-0.015V9c-0.121,0.035-0.247,0.061-0.378,0.076S46.402,9.1,46.25,9.1c-0.492,0-0.826-0.126-1.002-0.378
						s-0.264-0.579-0.264-0.981V3.586h-0.85V2.725h0.85V0.973z M48.137,2.725h1.002v1.084c0.082-0.211,0.283-0.468,0.604-0.771
						s0.689-0.454,1.107-0.454c0.02,0,0.053,0.002,0.1,0.006s0.127,0.012,0.24,0.023v1.113c-0.062-0.012-0.12-0.02-0.173-0.023
						s-0.11-0.006-0.173-0.006c-0.531,0-0.939,0.171-1.225,0.513s-0.428,0.735-0.428,1.181V9h-1.055V2.725z M56.012,2.897
						c0.418,0.209,0.736,0.479,0.955,0.812c0.211,0.316,0.352,0.686,0.422,1.107c0.062,0.289,0.094,0.75,0.094,1.383h-4.6
						c0.02,0.637,0.17,1.147,0.451,1.532s0.717,0.577,1.307,0.577c0.551,0,0.99-0.182,1.318-0.545
						c0.188-0.211,0.32-0.455,0.398-0.732h1.037c-0.027,0.23-0.118,0.487-0.272,0.771s-0.327,0.515-0.519,0.694
						c-0.32,0.312-0.717,0.523-1.189,0.633c-0.254,0.062-0.541,0.094-0.861,0.094c-0.781,0-1.443-0.284-1.986-0.853
						s-0.814-1.364-0.814-2.388c0-1.008,0.273-1.826,0.82-2.455s1.262-0.943,2.145-0.943C55.162,2.584,55.594,2.688,56.012,2.897z
						 M56.398,5.361c-0.043-0.457-0.143-0.822-0.299-1.096c-0.289-0.508-0.771-0.762-1.447-0.762c-0.484,0-0.891,0.175-1.219,0.524
						s-0.502,0.794-0.521,1.333H56.398z M55.379,1.893h-0.803l-1.57-1.693h1.307L55.379,1.893z M59.404,7.031
						c0.031,0.352,0.119,0.621,0.264,0.809c0.266,0.34,0.727,0.51,1.383,0.51c0.391,0,0.734-0.085,1.031-0.255
						s0.445-0.433,0.445-0.788c0-0.27-0.119-0.475-0.357-0.615c-0.152-0.086-0.453-0.186-0.902-0.299L60.43,6.182
						C59.895,6.049,59.5,5.9,59.246,5.736c-0.453-0.285-0.68-0.68-0.68-1.184c0-0.594,0.214-1.074,0.642-1.441
						s1.003-0.551,1.726-0.551c0.945,0,1.627,0.277,2.045,0.832c0.262,0.352,0.389,0.73,0.381,1.137h-0.996
						c-0.02-0.238-0.104-0.455-0.252-0.65c-0.242-0.277-0.662-0.416-1.26-0.416c-0.398,0-0.7,0.076-0.905,0.229
						s-0.308,0.354-0.308,0.604c0,0.273,0.135,0.492,0.404,0.656c0.156,0.098,0.387,0.184,0.691,0.258l0.697,0.17
						c0.758,0.184,1.266,0.361,1.523,0.533c0.41,0.27,0.615,0.693,0.615,1.271c0,0.559-0.212,1.041-0.636,1.447
						S61.865,9.24,60.998,9.24c-0.934,0-1.595-0.212-1.983-0.636s-0.597-0.948-0.624-1.573H59.404z M68.111,2.725h1.043v0.891
						c0.25-0.309,0.477-0.533,0.68-0.674c0.348-0.238,0.742-0.357,1.184-0.357c0.5,0,0.902,0.123,1.207,0.369
						c0.172,0.141,0.328,0.348,0.469,0.621c0.234-0.336,0.51-0.585,0.826-0.747s0.672-0.243,1.066-0.243
						c0.844,0,1.418,0.305,1.723,0.914c0.164,0.328,0.246,0.77,0.246,1.324V9h-1.096V4.641c0-0.418-0.104-0.705-0.313-0.861
						s-0.464-0.234-0.765-0.234c-0.414,0-0.771,0.139-1.069,0.416s-0.448,0.74-0.448,1.389V9h-1.072V4.904
						c0-0.426-0.051-0.736-0.152-0.932c-0.16-0.293-0.459-0.439-0.896-0.439c-0.398,0-0.761,0.154-1.087,0.463
						s-0.489,0.867-0.489,1.676V9h-1.055V2.725z M79.25,8.051c0.223,0.176,0.486,0.264,0.791,0.264c0.371,0,0.73-0.086,1.078-0.258
						c0.586-0.285,0.879-0.752,0.879-1.4v-0.85c-0.129,0.082-0.295,0.15-0.498,0.205s-0.402,0.094-0.598,0.117l-0.639,0.082
						c-0.383,0.051-0.67,0.131-0.861,0.24c-0.324,0.184-0.486,0.477-0.486,0.879C78.916,7.635,79.027,7.875,79.25,8.051z
						 M81.471,5.197c0.242-0.031,0.404-0.133,0.486-0.305c0.047-0.094,0.07-0.229,0.07-0.404c0-0.359-0.128-0.62-0.384-0.782
						s-0.622-0.243-1.099-0.243c-0.551,0-0.941,0.148-1.172,0.445c-0.129,0.164-0.213,0.408-0.252,0.732h-0.984
						c0.02-0.773,0.271-1.312,0.753-1.614s1.042-0.454,1.679-0.454c0.738,0,1.338,0.141,1.799,0.422
						c0.457,0.281,0.686,0.719,0.686,1.312v3.615c0,0.109,0.022,0.197,0.067,0.264s0.14,0.1,0.284,0.1
						c0.047,0,0.1-0.003,0.158-0.009s0.121-0.015,0.188-0.026v0.779c-0.164,0.047-0.289,0.076-0.375,0.088s-0.203,0.018-0.352,0.018
						c-0.363,0-0.627-0.129-0.791-0.387c-0.086-0.137-0.146-0.33-0.182-0.58c-0.215,0.281-0.523,0.525-0.926,0.732
						s-0.846,0.311-1.33,0.311c-0.582,0-1.058-0.177-1.427-0.53s-0.554-0.796-0.554-1.327c0-0.582,0.182-1.033,0.545-1.354
						s0.84-0.518,1.43-0.592L81.471,5.197z M85.836,2.725v4.166c0,0.32,0.051,0.582,0.152,0.785
						c0.188,0.375,0.537,0.562,1.049,0.562c0.734,0,1.234-0.328,1.5-0.984c0.145-0.352,0.217-0.834,0.217-1.447V2.725h1.055V9
						h-0.996l0.012-0.926c-0.137,0.238-0.307,0.439-0.51,0.604C87.912,9.006,87.424,9.17,86.85,9.17
						c-0.895,0-1.504-0.299-1.828-0.896c-0.176-0.32-0.264-0.748-0.264-1.283V2.725H85.836z M91.971,2.725l1.676,5.109l1.752-5.109
						h1.154L94.186,9h-1.125l-2.314-6.275H91.971z M98.598,8.051c0.223,0.176,0.486,0.264,0.791,0.264
						c0.371,0,0.73-0.086,1.078-0.258c0.586-0.285,0.879-0.752,0.879-1.4v-0.85c-0.129,0.082-0.295,0.15-0.498,0.205
						s-0.402,0.094-0.598,0.117l-0.639,0.082c-0.383,0.051-0.67,0.131-0.861,0.24c-0.324,0.184-0.486,0.477-0.486,0.879
						C98.264,7.635,98.375,7.875,98.598,8.051z M100.818,5.197c0.242-0.031,0.404-0.133,0.486-0.305
						c0.047-0.094,0.07-0.229,0.07-0.404c0-0.359-0.128-0.62-0.384-0.782s-0.622-0.243-1.099-0.243
						c-0.551,0-0.941,0.148-1.172,0.445c-0.129,0.164-0.213,0.408-0.252,0.732h-0.984c0.02-0.773,0.271-1.312,0.753-1.614
						s1.042-0.454,1.679-0.454c0.738,0,1.338,0.141,1.799,0.422c0.457,0.281,0.686,0.719,0.686,1.312v3.615
						c0,0.109,0.022,0.197,0.067,0.264s0.14,0.1,0.284,0.1c0.047,0,0.1-0.003,0.158-0.009s0.121-0.015,0.188-0.026v0.779
						c-0.164,0.047-0.289,0.076-0.375,0.088s-0.203,0.018-0.352,0.018c-0.363,0-0.627-0.129-0.791-0.387
						c-0.086-0.137-0.146-0.33-0.182-0.58c-0.215,0.281-0.523,0.525-0.926,0.732s-0.846,0.311-1.33,0.311
						c-0.582,0-1.058-0.177-1.427-0.53s-0.554-0.796-0.554-1.327c0-0.582,0.182-1.033,0.545-1.354s0.84-0.518,1.43-0.592
						L100.818,5.197z M104.129,2.754h1.072V9h-1.072V2.754z M104.129,0.393h1.072v1.195h-1.072V0.393z M107.422,7.031
						c0.031,0.352,0.119,0.621,0.264,0.809c0.266,0.34,0.727,0.51,1.383,0.51c0.391,0,0.734-0.085,1.031-0.255
						s0.445-0.433,0.445-0.788c0-0.27-0.119-0.475-0.357-0.615c-0.152-0.086-0.453-0.186-0.902-0.299l-0.838-0.211
						c-0.535-0.133-0.93-0.281-1.184-0.445c-0.453-0.285-0.68-0.68-0.68-1.184c0-0.594,0.214-1.074,0.642-1.441
						s1.003-0.551,1.726-0.551c0.945,0,1.627,0.277,2.045,0.832c0.262,0.352,0.389,0.73,0.381,1.137h-0.996
						c-0.02-0.238-0.104-0.455-0.252-0.65c-0.242-0.277-0.662-0.416-1.26-0.416c-0.398,0-0.7,0.076-0.905,0.229
						s-0.308,0.354-0.308,0.604c0,0.273,0.135,0.492,0.404,0.656c0.156,0.098,0.387,0.184,0.691,0.258l0.697,0.17
						c0.758,0.184,1.266,0.361,1.523,0.533c0.41,0.27,0.615,0.693,0.615,1.271c0,0.559-0.212,1.041-0.636,1.447
						s-1.069,0.609-1.937,0.609c-0.934,0-1.595-0.212-1.983-0.636s-0.597-0.948-0.624-1.573H107.422z M116.703,2.897
						c0.418,0.209,0.736,0.479,0.955,0.812c0.211,0.316,0.352,0.686,0.422,1.107c0.062,0.289,0.094,0.75,0.094,1.383h-4.6
						c0.02,0.637,0.17,1.147,0.451,1.532s0.717,0.577,1.307,0.577c0.551,0,0.99-0.182,1.318-0.545
						c0.188-0.211,0.32-0.455,0.398-0.732h1.037c-0.027,0.23-0.118,0.487-0.272,0.771s-0.327,0.515-0.519,0.694
						c-0.32,0.312-0.717,0.523-1.189,0.633c-0.254,0.062-0.541,0.094-0.861,0.094c-0.781,0-1.443-0.284-1.986-0.853
						s-0.814-1.364-0.814-2.388c0-1.008,0.273-1.826,0.82-2.455s1.262-0.943,2.145-0.943C115.854,2.584,116.285,2.688,116.703,2.897
						z M117.09,5.361c-0.043-0.457-0.143-0.822-0.299-1.096c-0.289-0.508-0.771-0.762-1.447-0.762c-0.484,0-0.891,0.175-1.219,0.524
						s-0.502,0.794-0.521,1.333H117.09z"/>
					<g id="Group-24" transform="translate(0.000000, 3.000000)" opacity="0.5">
						<polygon id="Line" fill="#131E2B" points="37.014,2 0.81,2 0.81,3 37.014,3 						"/>
						<polygon id="Triangle" fill="#131E2B" points="1,2.5 7,0 7,5 						"/>
					</g>
				</g>
				<g id="Group-25-Copy" transform="translate(324.000000, 19.000000)">
					<path id="très-favorable" fill="#898F95" d="M0.984,0.973h1.066v1.752h1.002v0.861H2.051v4.096
						c0,0.219,0.074,0.365,0.223,0.439c0.082,0.043,0.219,0.064,0.41,0.064c0.051,0,0.105-0.001,0.164-0.003
						s0.127-0.007,0.205-0.015V9C2.932,9.035,2.806,9.061,2.675,9.076S2.402,9.1,2.25,9.1c-0.492,0-0.826-0.126-1.002-0.378
						S0.984,8.143,0.984,7.74V3.586h-0.85V2.725h0.85V0.973z M4.137,2.725h1.002v1.084c0.082-0.211,0.283-0.468,0.604-0.771
						S6.432,2.584,6.85,2.584c0.02,0,0.053,0.002,0.1,0.006s0.127,0.012,0.24,0.023v1.113c-0.062-0.012-0.12-0.02-0.173-0.023
						s-0.11-0.006-0.173-0.006c-0.531,0-0.939,0.171-1.225,0.513S5.191,4.945,5.191,5.391V9H4.137V2.725z M12.012,2.897
						c0.418,0.209,0.736,0.479,0.955,0.812c0.211,0.316,0.352,0.686,0.422,1.107c0.062,0.289,0.094,0.75,0.094,1.383h-4.6
						c0.02,0.637,0.17,1.147,0.451,1.532s0.717,0.577,1.307,0.577c0.551,0,0.99-0.182,1.318-0.545
						c0.188-0.211,0.32-0.455,0.398-0.732h1.037c-0.027,0.23-0.118,0.487-0.272,0.771s-0.327,0.515-0.519,0.694
						c-0.32,0.312-0.717,0.523-1.189,0.633c-0.254,0.062-0.541,0.094-0.861,0.094c-0.781,0-1.443-0.284-1.986-0.853
						S7.752,7.006,7.752,5.982c0-1.008,0.273-1.826,0.82-2.455s1.262-0.943,2.145-0.943C11.162,2.584,11.594,2.688,12.012,2.897z
						 M12.398,5.361c-0.043-0.457-0.143-0.822-0.299-1.096c-0.289-0.508-0.771-0.762-1.447-0.762c-0.484,0-0.891,0.175-1.219,0.524
						S8.932,4.822,8.912,5.361H12.398z M11.379,1.893h-0.803l-1.57-1.693h1.307L11.379,1.893z M15.404,7.031
						c0.031,0.352,0.119,0.621,0.264,0.809c0.266,0.34,0.727,0.51,1.383,0.51c0.391,0,0.734-0.085,1.031-0.255
						s0.445-0.433,0.445-0.788c0-0.27-0.119-0.475-0.357-0.615c-0.152-0.086-0.453-0.186-0.902-0.299L16.43,6.182
						C15.895,6.049,15.5,5.9,15.246,5.736c-0.453-0.285-0.68-0.68-0.68-1.184c0-0.594,0.214-1.074,0.642-1.441
						s1.003-0.551,1.726-0.551c0.945,0,1.627,0.277,2.045,0.832c0.262,0.352,0.389,0.73,0.381,1.137h-0.996
						c-0.02-0.238-0.104-0.455-0.252-0.65c-0.242-0.277-0.662-0.416-1.26-0.416c-0.398,0-0.7,0.076-0.905,0.229
						s-0.308,0.354-0.308,0.604c0,0.273,0.135,0.492,0.404,0.656c0.156,0.098,0.387,0.184,0.691,0.258l0.697,0.17
						c0.758,0.184,1.266,0.361,1.523,0.533c0.41,0.27,0.615,0.693,0.615,1.271c0,0.559-0.212,1.041-0.636,1.447
						S17.865,9.24,16.998,9.24c-0.934,0-1.595-0.212-1.983-0.636s-0.597-0.948-0.624-1.573H15.404z M24.604,0.809
						c0.246-0.359,0.721-0.539,1.424-0.539c0.066,0,0.135,0.002,0.205,0.006s0.15,0.01,0.24,0.018v0.961
						c-0.109-0.008-0.188-0.013-0.237-0.015s-0.095-0.003-0.138-0.003c-0.32,0-0.512,0.083-0.574,0.249S25.43,2.074,25.43,2.754
						h1.043v0.832h-1.055V9h-1.043V3.586h-0.873V2.754h0.873V1.77C24.391,1.332,24.467,1.012,24.604,0.809z M28.588,8.051
						c0.223,0.176,0.486,0.264,0.791,0.264c0.371,0,0.73-0.086,1.078-0.258c0.586-0.285,0.879-0.752,0.879-1.4v-0.85
						c-0.129,0.082-0.295,0.15-0.498,0.205s-0.402,0.094-0.598,0.117l-0.639,0.082c-0.383,0.051-0.67,0.131-0.861,0.24
						c-0.324,0.184-0.486,0.477-0.486,0.879C28.254,7.635,28.365,7.875,28.588,8.051z M30.809,5.197
						c0.242-0.031,0.404-0.133,0.486-0.305c0.047-0.094,0.07-0.229,0.07-0.404c0-0.359-0.128-0.62-0.384-0.782
						s-0.622-0.243-1.099-0.243c-0.551,0-0.941,0.148-1.172,0.445c-0.129,0.164-0.213,0.408-0.252,0.732h-0.984
						c0.02-0.773,0.271-1.312,0.753-1.614s1.042-0.454,1.679-0.454c0.738,0,1.338,0.141,1.799,0.422
						c0.457,0.281,0.686,0.719,0.686,1.312v3.615c0,0.109,0.022,0.197,0.067,0.264s0.14,0.1,0.284,0.1
						c0.047,0,0.1-0.003,0.158-0.009s0.121-0.015,0.188-0.026v0.779c-0.164,0.047-0.289,0.076-0.375,0.088s-0.203,0.018-0.352,0.018
						c-0.363,0-0.627-0.129-0.791-0.387c-0.086-0.137-0.146-0.33-0.182-0.58c-0.215,0.281-0.523,0.525-0.926,0.732
						s-0.846,0.311-1.33,0.311c-0.582,0-1.058-0.177-1.427-0.53s-0.554-0.796-0.554-1.327c0-0.582,0.182-1.033,0.545-1.354
						s0.84-0.518,1.43-0.592L30.809,5.197z M34.635,2.725l1.676,5.109l1.752-5.109h1.154L36.85,9h-1.125L33.41,2.725H34.635z
						 M44.048,7.526c0.26-0.529,0.39-1.118,0.39-1.767c0-0.586-0.094-1.062-0.281-1.43c-0.297-0.578-0.809-0.867-1.535-0.867
						c-0.645,0-1.113,0.246-1.406,0.738s-0.439,1.086-0.439,1.781c0,0.668,0.146,1.225,0.439,1.67s0.758,0.668,1.395,0.668
						C43.309,8.32,43.788,8.056,44.048,7.526z M44.701,3.352c0.559,0.539,0.838,1.332,0.838,2.379c0,1.012-0.246,1.848-0.738,2.508
						s-1.256,0.99-2.291,0.99c-0.863,0-1.549-0.292-2.057-0.876S39.691,6.984,39.691,6c0-1.055,0.268-1.895,0.803-2.52
						s1.254-0.938,2.156-0.938C43.459,2.543,44.143,2.812,44.701,3.352z M46.822,2.725h1.002v1.084
						c0.082-0.211,0.283-0.468,0.604-0.771s0.689-0.454,1.107-0.454c0.02,0,0.053,0.002,0.1,0.006s0.127,0.012,0.24,0.023v1.113
						c-0.062-0.012-0.12-0.02-0.173-0.023s-0.11-0.006-0.173-0.006c-0.531,0-0.939,0.171-1.225,0.513s-0.428,0.735-0.428,1.181V9
						h-1.055V2.725z M51.932,8.051c0.223,0.176,0.486,0.264,0.791,0.264c0.371,0,0.73-0.086,1.078-0.258
						c0.586-0.285,0.879-0.752,0.879-1.4v-0.85c-0.129,0.082-0.295,0.15-0.498,0.205s-0.402,0.094-0.598,0.117l-0.639,0.082
						c-0.383,0.051-0.67,0.131-0.861,0.24c-0.324,0.184-0.486,0.477-0.486,0.879C51.598,7.635,51.709,7.875,51.932,8.051z
						 M54.152,5.197c0.242-0.031,0.404-0.133,0.486-0.305c0.047-0.094,0.07-0.229,0.07-0.404c0-0.359-0.128-0.62-0.384-0.782
						s-0.622-0.243-1.099-0.243c-0.551,0-0.941,0.148-1.172,0.445c-0.129,0.164-0.213,0.408-0.252,0.732h-0.984
						c0.02-0.773,0.271-1.312,0.753-1.614s1.042-0.454,1.679-0.454c0.738,0,1.338,0.141,1.799,0.422
						c0.457,0.281,0.686,0.719,0.686,1.312v3.615c0,0.109,0.022,0.197,0.067,0.264s0.14,0.1,0.284,0.1
						c0.047,0,0.1-0.003,0.158-0.009s0.121-0.015,0.188-0.026v0.779c-0.164,0.047-0.289,0.076-0.375,0.088s-0.203,0.018-0.352,0.018
						c-0.363,0-0.627-0.129-0.791-0.387c-0.086-0.137-0.146-0.33-0.182-0.58c-0.215,0.281-0.523,0.525-0.926,0.732
						s-0.846,0.311-1.33,0.311c-0.582,0-1.058-0.177-1.427-0.53s-0.554-0.796-0.554-1.327c0-0.582,0.182-1.033,0.545-1.354
						s0.84-0.518,1.43-0.592L54.152,5.197z M57.381,0.363h1.025v3.123c0.23-0.301,0.506-0.53,0.826-0.688s0.668-0.237,1.043-0.237
						c0.781,0,1.415,0.269,1.901,0.806s0.729,1.329,0.729,2.376c0,0.992-0.24,1.816-0.721,2.473s-1.146,0.984-1.998,0.984
						c-0.477,0-0.879-0.115-1.207-0.346c-0.195-0.137-0.404-0.355-0.627-0.656V9h-0.973V0.363z M61.403,7.588
						c0.283-0.453,0.425-1.051,0.425-1.793c0-0.66-0.142-1.207-0.425-1.641s-0.7-0.65-1.251-0.65c-0.48,0-0.901,0.178-1.263,0.533
						s-0.542,0.941-0.542,1.758c0,0.59,0.074,1.068,0.223,1.436c0.277,0.691,0.795,1.037,1.553,1.037
						C60.693,8.268,61.12,8.041,61.403,7.588z M64.166,0.393h1.055V9h-1.055V0.393z M70.711,2.897
						c0.418,0.209,0.736,0.479,0.955,0.812c0.211,0.316,0.352,0.686,0.422,1.107c0.062,0.289,0.094,0.75,0.094,1.383h-4.6
						c0.02,0.637,0.17,1.147,0.451,1.532s0.717,0.577,1.307,0.577c0.551,0,0.99-0.182,1.318-0.545
						c0.188-0.211,0.32-0.455,0.398-0.732h1.037c-0.027,0.23-0.118,0.487-0.272,0.771s-0.327,0.515-0.519,0.694
						c-0.32,0.312-0.717,0.523-1.189,0.633c-0.254,0.062-0.541,0.094-0.861,0.094c-0.781,0-1.443-0.284-1.986-0.853
						s-0.814-1.364-0.814-2.388c0-1.008,0.273-1.826,0.82-2.455s1.262-0.943,2.145-0.943C69.861,2.584,70.293,2.688,70.711,2.897z
						 M71.098,5.361c-0.043-0.457-0.143-0.822-0.299-1.096c-0.289-0.508-0.771-0.762-1.447-0.762c-0.484,0-0.891,0.175-1.219,0.524
						s-0.502,0.794-0.521,1.333H71.098z"/>
					
						<g id="Group-24_1_" transform="translate(98.000000, 5.500000) scale(-1, 1) translate(-98.000000, -5.500000) translate(79.000000, 3.000000)" opacity="0.5">
						<polygon id="Line_1_" fill="#131E2B" points="37.014,2 0.81,2 0.81,3 37.014,3 						"/>
						<polygon id="Triangle_1_" fill="#131E2B" points="1,2.5 7,0 7,5 						"/>
					</g>
				</g>
			</g>
		</g>
	</g>
</g>
<g>
	<path fill="#898F95" d="M20.038-12.2c2.663,0,2.831,2.447,2.831,4.33c0,1.871-0.168,4.318-2.831,4.318
		c-2.662,0-2.83-2.447-2.83-4.318C17.208-9.753,17.376-12.2,20.038-12.2z M20.038-4.452c1.739,0,1.751-2.159,1.751-3.43
		c0-1.259-0.012-3.418-1.751-3.418c-1.739,0-1.751,2.159-1.751,3.418C18.287-6.611,18.299-4.452,20.038-4.452z"/>
</g>
<g>
	<path fill="#898F95" d="M61.336-3.625h-1.02v-6.093H58.11v-0.815c1.164,0,2.219-0.312,2.447-1.596h0.779V-3.625z"/>
</g>
<g>
	<path fill="#898F95" d="M97.744-9.118c-0.084-1.728,0.936-3.011,2.734-3.011c1.487,0,2.663,0.864,2.663,2.447
		c0,1.499-1.007,2.255-2.063,2.914c-1.067,0.647-2.183,1.188-2.387,2.243h4.366v0.899h-5.553c0.167-2.015,1.187-2.734,2.386-3.479
		c1.439-0.888,2.171-1.415,2.171-2.591c0-0.923-0.744-1.535-1.643-1.535c-1.188,0-1.691,1.092-1.655,2.111H97.744z"/>
</g>
<g>
	<path fill="#898F95" d="M140.164-8.554c0.156,0.012,0.3,0.012,0.443,0.012c0.864,0,1.619-0.468,1.619-1.391
		c0-0.888-0.647-1.368-1.511-1.368c-1.115,0-1.595,0.852-1.607,1.847h-1.02c0.06-1.619,0.924-2.747,2.626-2.747
		c1.476,0,2.591,0.708,2.591,2.279c0,0.744-0.528,1.391-1.175,1.691v0.024c1.031,0.228,1.535,1.043,1.535,2.063
		c0,1.703-1.332,2.591-2.926,2.591c-1.727,0-2.867-1.02-2.831-2.771h1.02c0.036,1.104,0.647,1.871,1.811,1.871
		c0.995,0,1.847-0.612,1.847-1.643c0-1.068-0.803-1.631-1.811-1.631c-0.204,0-0.419,0.012-0.611,0.036V-8.554z"/>
</g>
<g>
	<path fill="#898F95" d="M182.851-6.515h1.151v0.899h-1.151v1.991h-0.959v-1.991h-3.73v-0.983l3.874-5.529h0.816V-6.515z
		 M181.892-6.515v-4.162h-0.024l-2.831,4.162H181.892z"/>
</g>
<g>
	<path fill="#898F95" d="M223.729-11.229h-3.43l-0.456,2.447l0.024,0.023c0.372-0.42,1.007-0.611,1.583-0.611
		c1.511,0,2.747,0.972,2.747,2.914c0,1.439-0.995,2.831-2.975,2.831c-1.475,0-2.674-0.899-2.71-2.435h1.02
		c0.06,0.875,0.768,1.535,1.787,1.535c0.971,0,1.799-0.66,1.799-2.016c0-1.127-0.779-1.931-1.919-1.931
		c-0.647,0-1.188,0.324-1.583,0.804l-0.875-0.048l0.792-4.414h4.198V-11.229z"/>
</g>
<g>
	<path fill="#898F95" d="M263.385-10.029c-0.096-0.768-0.623-1.271-1.427-1.271c-1.739,0-2.016,1.919-2.063,3.227l0.024,0.024
		c0.479-0.78,1.199-1.115,2.123-1.115c1.631,0,2.603,1.187,2.603,2.758c0,1.235-0.696,2.854-2.843,2.854
		c-2.519,0-2.927-2.303-2.927-4.09c0-2.339,0.708-4.558,3.131-4.558c1.403,0,2.278,0.792,2.398,2.171H263.385z M260.087-6.347
		c0,1.055,0.647,1.895,1.763,1.895c1.104,0,1.715-0.875,1.715-1.883c0-1.055-0.552-1.931-1.715-1.931
		C260.71-8.266,260.087-7.415,260.087-6.347z"/>
</g>
<g>
	<path fill="#898F95" d="M304.874-11.181c-1.715,1.703-3.106,4.821-3.263,7.484h-1.139c0.191-2.878,1.571-5.505,3.357-7.4h-4.461
		v-0.959h5.505V-11.181z"/>
</g>
<g>
	<path fill="#898F95" d="M342.304-12.2c1.858,0,2.578,1.091,2.578,2.171c0,0.755-0.479,1.451-1.176,1.763
		c1.02,0.324,1.512,1.067,1.512,2.123c0,1.643-1.247,2.591-2.818,2.591c-1.631,0-2.891-0.852-2.891-2.591
		c0-1.007,0.54-1.787,1.487-2.123c-0.708-0.288-1.188-0.996-1.188-1.763C339.809-11.433,340.996-12.2,342.304-12.2z M342.399-4.452
		c1.02,0,1.739-0.708,1.739-1.655c0-0.923-0.792-1.619-1.751-1.619c-1.008,0-1.8,0.647-1.8,1.631
		C340.588-5.076,341.344-4.452,342.399-4.452z M342.399-8.626c0.804,0,1.403-0.504,1.403-1.367c0-0.852-0.6-1.308-1.428-1.308
		c-0.815,0-1.487,0.456-1.487,1.308C340.888-9.058,341.56-8.626,342.399-8.626z"/>
</g>
<g>
	<path fill="#898F95" d="M380.903-5.748c0.072,0.828,0.744,1.295,1.56,1.295c1.247,0,1.859-1.092,1.919-3.287l-0.024-0.024
		c-0.384,0.72-1.139,1.175-1.967,1.175c-1.727,0-2.687-1.163-2.687-2.842c0-1.643,1.151-2.771,2.795-2.771
		c1.583,0,2.914,0.852,2.914,4.066c0,2.938-0.888,4.582-2.95,4.582c-1.427,0-2.446-0.732-2.578-2.195H380.903z M382.451-11.301
		c-1.212,0-1.667,0.972-1.667,2.015c0,0.936,0.695,1.799,1.679,1.799c1.067,0,1.739-0.863,1.739-1.871
		C384.202-10.401,383.59-11.301,382.451-11.301z"/>
</g>
<g>
	<path fill="#898F95" d="M420.514-3.697h-1.02V-9.79h-2.206v-0.815c1.163,0,2.219-0.312,2.446-1.595h0.779V-3.697z"/>
	<path fill="#898F95" d="M426.25-12.2c2.663,0,2.831,2.447,2.831,4.33c0,1.871-0.168,4.318-2.831,4.318
		c-2.662,0-2.83-2.447-2.83-4.318C423.42-9.753,423.588-12.2,426.25-12.2z M426.25-4.452c1.739,0,1.751-2.159,1.751-3.43
		c0-1.259-0.012-3.418-1.751-3.418c-1.738,0-1.751,2.159-1.751,3.418C424.499-6.611,424.512-4.452,426.25-4.452z"/>
</g>
</svg>
